<svg id="Capa_1" enable-background="new 0 0 510 510" height="512" fill="red" viewBox="0 0 510 510" width="512" xmlns="http://www.w3.org/2000/svg" xmlns:xlink="http://www.w3.org/1999/xlink"><linearGradient id="SVGID_1_" gradientTransform="matrix(.707 .707 -.707 .707 -712.95 1256.33)" gradientUnits="userSpaceOnUse" x1="-38.169" x2="23.709" y1="-1177.808" y2="-1177.808"><stop offset="0" stop-color="#0b799d"/><stop offset="1" stop-color="#07485e"/></linearGradient><linearGradient id="SVGID_2_" gradientTransform="matrix(.707 .707 -.707 .707 -712.95 1256.33)" gradientUnits="userSpaceOnUse" x1="-23.603" x2="-23.603" y1="-1061.458" y2="-1076.594"><stop offset="0" stop-color="#76e2f8"/><stop offset="1" stop-color="#48b2e3"/></linearGradient><linearGradient id="SVGID_3_" gradientTransform="matrix(.707 .707 -.707 .707 -712.95 1256.33)" gradientUnits="userSpaceOnUse" x1="-8.758" x2="-41.25" y1="-1180.391" y2="-1324.928"><stop offset="0" stop-color="#07485e" stop-opacity="0"/><stop offset="1" stop-color="#03232e"/></linearGradient><linearGradient id="lg1"><stop offset="0" stop-color="#b5dbff"/><stop offset="1" stop-color="#48b2e3"/></linearGradient><linearGradient id="SVGID_4_" gradientTransform="matrix(.707 .707 -.707 .707 -712.95 1256.33)" gradientUnits="userSpaceOnUse" x1="-57.063" x2="16.013" xlink:href="#lg1" y1="-1293.606" y2="-1220.53"/><linearGradient id="SVGID_5_" gradientTransform="matrix(.707 .707 -.707 .707 -712.95 1256.33)" gradientUnits="userSpaceOnUse" x1="-23.603" x2="-23.603" y1="-1230.457" y2="-1287.009"><stop offset="0" stop-color="#b5dbff" stop-opacity="0"/><stop offset=".1734" stop-color="#8fc5e9" stop-opacity=".173"/><stop offset=".4541" stop-color="#56a4c8" stop-opacity=".454"/><stop offset=".6955" stop-color="#2d8db1" stop-opacity=".696"/><stop offset=".8853" stop-color="#147ea2" stop-opacity=".885"/><stop offset="1" stop-color="#0b799d"/></linearGradient><linearGradient id="lg2"><stop offset="0" stop-color="#edf5ff"/><stop offset="1" stop-color="#d5e8fe"/></linearGradient><linearGradient id="SVGID_6_" gradientTransform="matrix(.707 .707 -.707 .707 -712.95 1256.33)" gradientUnits="userSpaceOnUse" x1="-142.762" x2="117.485" xlink:href="#lg2" y1="-1584.371" y2="-1324.123"/><linearGradient id="SVGID_7_" gradientTransform="matrix(-.707 -.707 .707 -.707 -2994.593 -1741.119)" gradientUnits="userSpaceOnUse" x1="-3809.585" x2="-3590.511" xlink:href="#lg2" y1="858.754" y2="1077.828"/><linearGradient id="SVGID_8_" gradientTransform="matrix(.707 .707 -.707 .707 -712.95 1256.33)" gradientUnits="userSpaceOnUse" x1="-109.465" x2="78.061" y1="-1551.074" y2="-1363.548"><stop offset="0" stop-color="#ff637b"/><stop offset="1" stop-color="#e63950"/></linearGradient><linearGradient id="SVGID_9_" gradientTransform="matrix(.707 .707 -.707 .707 -712.95 1256.33)" gradientUnits="userSpaceOnUse" x1="-23.603" x2="-23.603" xlink:href="#lg1" y1="-1106.835" y2="-1072.731"/><g><g fill="#b5dbff"><path d="m49.523 53.15-2.969 1.843c-.921.614-1.843.819-2.559.819-2.969 0-5.017-3.174-5.017-6.347 0-2.15.922-4.198 2.969-5.426l13.514-8.19c.819-.512 1.843-.717 2.969-.717 3.276 0 7.064 1.945 7.064 5.017v65.112c0 3.276-3.993 4.914-7.985 4.914s-7.985-1.638-7.985-4.914v-52.111z"/><path d="m85.664 86.628v-27.13c0-17.609 10.954-24.161 25.083-24.161s25.185 6.552 25.185 24.161v27.13c0 17.609-11.057 24.161-25.185 24.161s-25.083-6.552-25.083-24.161zm34.296-27.13c0-7.064-3.481-10.238-9.214-10.238s-9.112 3.174-9.112 10.238v27.13c0 7.064 3.378 10.238 9.112 10.238 5.733 0 9.214-3.174 9.214-10.238z"/><path d="m161.22 53.15-2.969 1.843c-.921.614-1.843.819-2.559.819-2.969 0-5.017-3.174-5.017-6.347 0-2.15.922-4.198 2.969-5.426l13.514-8.19c.819-.512 1.843-.717 2.969-.717 3.276 0 7.064 1.945 7.064 5.017v65.112c0 3.276-3.993 4.914-7.985 4.914-3.993 0-7.985-1.638-7.985-4.914v-52.111z"/><path d="m197.36 86.628v-27.13c0-17.609 10.954-24.161 25.083-24.161s25.185 6.552 25.185 24.161v27.13c0 17.609-11.057 24.161-25.185 24.161s-25.083-6.552-25.083-24.161zm34.297-27.13c0-7.064-3.481-10.238-9.214-10.238s-9.112 3.174-9.112 10.238v27.13c0 7.064 3.378 10.238 9.112 10.238s9.214-3.174 9.214-10.238z"/><path d="m272.917 53.15-2.969 1.843c-.921.614-1.843.819-2.559.819-2.969 0-5.017-3.174-5.017-6.347 0-2.15.922-4.198 2.969-5.426l13.514-8.19c.819-.512 1.843-.717 2.969-.717 3.276 0 7.064 1.945 7.064 5.017v65.112c0 3.276-3.993 4.914-7.985 4.914-3.993 0-7.985-1.638-7.985-4.914v-52.111z"/><path d="m309.057 86.628v-27.13c0-17.609 10.954-24.161 25.083-24.161s25.185 6.552 25.185 24.161v27.13c0 17.609-11.057 24.161-25.185 24.161s-25.083-6.552-25.083-24.161zm34.297-27.13c0-7.064-3.481-10.238-9.214-10.238s-9.112 3.174-9.112 10.238v27.13c0 7.064 3.378 10.238 9.112 10.238s9.214-3.174 9.214-10.238z"/><path d="m384.614 53.15-2.969 1.843c-.921.614-1.843.819-2.559.819-2.969 0-5.017-3.174-5.017-6.347 0-2.15.922-4.198 2.969-5.426l13.514-8.19c.819-.512 1.843-.717 2.969-.717 3.276 0 7.064 1.945 7.064 5.017v65.112c0 3.276-3.993 4.914-7.985 4.914-3.993 0-7.985-1.638-7.985-4.914v-52.111z"/><path d="m43.892 173.707v-27.13c0-17.609 10.954-24.161 25.083-24.161s25.185 6.552 25.185 24.161v27.13c0 17.609-11.057 24.161-25.185 24.161s-25.083-6.552-25.083-24.161zm34.297-27.13c0-7.064-3.481-10.238-9.214-10.238s-9.112 3.174-9.112 10.238v27.13c0 7.064 3.378 10.238 9.112 10.238s9.214-3.174 9.214-10.238z"/><path d="m119.449 140.229-2.969 1.843c-.921.614-1.843.819-2.559.819-2.969 0-5.017-3.174-5.017-6.347 0-2.15.922-4.198 2.969-5.426l13.514-8.19c.819-.512 1.843-.717 2.969-.717 3.276 0 7.064 1.945 7.064 5.017v65.112c0 3.276-3.993 4.914-7.985 4.914-3.993 0-7.985-1.638-7.985-4.914v-52.111z"/><path d="m155.589 173.707v-27.13c0-17.609 10.954-24.161 25.083-24.161 14.128 0 25.185 6.552 25.185 24.161v27.13c0 17.609-11.057 24.161-25.185 24.161s-25.083-6.552-25.083-24.161zm34.297-27.13c0-7.064-3.481-10.238-9.214-10.238s-9.112 3.174-9.112 10.238v27.13c0 7.064 3.378 10.238 9.112 10.238s9.214-3.174 9.214-10.238z"/><path d="m231.146 140.229-2.969 1.843c-.921.614-1.843.819-2.559.819-2.969 0-5.017-3.174-5.017-6.347 0-2.15.922-4.198 2.969-5.426l13.514-8.19c.819-.512 1.843-.717 2.969-.717 3.276 0 7.064 1.945 7.064 5.017v65.112c0 3.276-3.993 4.914-7.985 4.914-3.993 0-7.985-1.638-7.985-4.914v-52.111z"/><path d="m267.286 173.707v-27.13c0-17.609 10.954-24.161 25.083-24.161 14.128 0 25.185 6.552 25.185 24.161v27.13c0 17.609-11.057 24.161-25.185 24.161s-25.083-6.552-25.083-24.161zm34.297-27.13c0-7.064-3.481-10.238-9.214-10.238s-9.112 3.174-9.112 10.238v27.13c0 7.064 3.378 10.238 9.112 10.238s9.214-3.174 9.214-10.238z"/><path d="m342.843 140.229-2.969 1.843c-.921.614-1.843.819-2.559.819-2.969 0-5.017-3.174-5.017-6.347 0-2.15.922-4.198 2.969-5.426l13.514-8.19c.819-.512 1.843-.717 2.969-.717 3.276 0 7.064 1.945 7.064 5.017v65.112c0 3.276-3.993 4.914-7.985 4.914-3.993 0-7.985-1.638-7.985-4.914v-52.111z"/><path d="m378.983 173.707v-27.13c0-17.609 10.954-24.161 25.083-24.161 14.128 0 25.185 6.552 25.185 24.161v27.13c0 17.609-11.057 24.161-25.185 24.161-14.129 0-25.083-6.552-25.083-24.161zm34.297-27.13c0-7.064-3.481-10.238-9.214-10.238s-9.112 3.174-9.112 10.238v27.13c0 7.064 3.378 10.238 9.112 10.238s9.214-3.174 9.214-10.238z"/><path d="m454.54 140.229-2.969 1.843c-.921.614-1.843.819-2.559.819-2.969 0-5.017-3.174-5.017-6.347 0-2.15.922-4.198 2.969-5.426l13.514-8.19c.819-.512 1.843-.717 2.969-.717 3.276 0 7.064 1.945 7.064 5.017v65.112c0 3.276-3.993 4.914-7.985 4.914-3.993 0-7.985-1.638-7.985-4.914v-52.111z"/><path d="m49.523 227.308-2.969 1.843c-.921.614-1.843.819-2.559.819-2.969 0-5.017-3.174-5.017-6.348 0-2.15.922-4.197 2.969-5.426l13.514-8.19c.819-.512 1.843-.717 2.969-.717 3.276 0 7.064 1.945 7.064 5.016v65.113c0 3.276-3.993 4.914-7.985 4.914s-7.985-1.638-7.985-4.914v-52.11z"/><path d="m85.664 260.786v-27.13c0-17.609 10.954-24.161 25.083-24.161s25.185 6.552 25.185 24.161v27.13c0 17.609-11.057 24.161-25.185 24.161s-25.083-6.552-25.083-24.161zm34.296-27.13c0-7.064-3.481-10.237-9.214-10.237s-9.112 3.174-9.112 10.237v27.13c0 7.064 3.378 10.237 9.112 10.237 5.733 0 9.214-3.174 9.214-10.237z"/><path d="m161.22 227.308-2.969 1.843c-.921.614-1.843.819-2.559.819-2.969 0-5.017-3.174-5.017-6.348 0-2.15.922-4.197 2.969-5.426l13.514-8.19c.819-.512 1.843-.717 2.969-.717 3.276 0 7.064 1.945 7.064 5.016v65.113c0 3.276-3.993 4.914-7.985 4.914-3.993 0-7.985-1.638-7.985-4.914v-52.11z"/><path d="m197.36 260.786v-27.13c0-17.609 10.954-24.161 25.083-24.161s25.185 6.552 25.185 24.161v27.13c0 17.609-11.057 24.161-25.185 24.161s-25.083-6.552-25.083-24.161zm34.297-27.13c0-7.064-3.481-10.237-9.214-10.237s-9.112 3.174-9.112 10.237v27.13c0 7.064 3.378 10.237 9.112 10.237s9.214-3.174 9.214-10.237z"/><path d="m272.917 227.308-2.969 1.843c-.921.614-1.843.819-2.559.819-2.969 0-5.017-3.174-5.017-6.348 0-2.15.922-4.197 2.969-5.426l13.514-8.19c.819-.512 1.843-.717 2.969-.717 3.276 0 7.064 1.945 7.064 5.016v65.113c0 3.276-3.993 4.914-7.985 4.914-3.993 0-7.985-1.638-7.985-4.914v-52.11z"/><path d="m309.057 260.786v-27.13c0-17.609 10.954-24.161 25.083-24.161s25.185 6.552 25.185 24.161v27.13c0 17.609-11.057 24.161-25.185 24.161s-25.083-6.552-25.083-24.161zm34.297-27.13c0-7.064-3.481-10.237-9.214-10.237s-9.112 3.174-9.112 10.237v27.13c0 7.064 3.378 10.237 9.112 10.237s9.214-3.174 9.214-10.237z"/><path d="m384.614 227.308-2.969 1.843c-.921.614-1.843.819-2.559.819-2.969 0-5.017-3.174-5.017-6.348 0-2.15.922-4.197 2.969-5.426l13.514-8.19c.819-.512 1.843-.717 2.969-.717 3.276 0 7.064 1.945 7.064 5.016v65.113c0 3.276-3.993 4.914-7.985 4.914-3.993 0-7.985-1.638-7.985-4.914v-52.11z"/><path d="m420.755 260.786v-27.13c0-17.609 10.954-24.161 25.083-24.161 14.128 0 25.185 6.552 25.185 24.161v27.13c0 17.609-11.057 24.161-25.185 24.161-14.129 0-25.083-6.552-25.083-24.161zm34.296-27.13c0-7.064-3.481-10.237-9.214-10.237s-9.112 3.174-9.112 10.237v27.13c0 7.064 3.378 10.237 9.112 10.237s9.214-3.174 9.214-10.237z"/><path d="m43.892 347.865v-27.13c0-17.609 10.954-24.161 25.083-24.161s25.185 6.552 25.185 24.161v27.13c0 17.609-11.057 24.161-25.185 24.161s-25.083-6.552-25.083-24.161zm34.297-27.131c0-7.064-3.481-10.237-9.214-10.237s-9.112 3.174-9.112 10.237v27.13c0 7.064 3.378 10.237 9.112 10.237s9.214-3.174 9.214-10.237z"/><path d="m119.449 314.387-2.969 1.843c-.921.614-1.843.819-2.559.819-2.969 0-5.017-3.174-5.017-6.348 0-2.15.922-4.197 2.969-5.426l13.514-8.19c.819-.512 1.843-.717 2.969-.717 3.276 0 7.064 1.945 7.064 5.016v65.113c0 3.276-3.993 4.914-7.985 4.914-3.993 0-7.985-1.638-7.985-4.914v-52.11z"/><path d="m155.589 347.865v-27.13c0-17.609 10.954-24.161 25.083-24.161 14.128 0 25.185 6.552 25.185 24.161v27.13c0 17.609-11.057 24.161-25.185 24.161s-25.083-6.552-25.083-24.161zm34.297-27.131c0-7.064-3.481-10.237-9.214-10.237s-9.112 3.174-9.112 10.237v27.13c0 7.064 3.378 10.237 9.112 10.237s9.214-3.174 9.214-10.237z"/><path d="m231.146 314.387-2.969 1.843c-.921.614-1.843.819-2.559.819-2.969 0-5.017-3.174-5.017-6.348 0-2.15.922-4.197 2.969-5.426l13.514-8.19c.819-.512 1.843-.717 2.969-.717 3.276 0 7.064 1.945 7.064 5.016v65.113c0 3.276-3.993 4.914-7.985 4.914-3.993 0-7.985-1.638-7.985-4.914v-52.11z"/><path d="m267.286 347.865v-27.13c0-17.609 10.954-24.161 25.083-24.161 14.128 0 25.185 6.552 25.185 24.161v27.13c0 17.609-11.057 24.161-25.185 24.161s-25.083-6.552-25.083-24.161zm34.297-27.131c0-7.064-3.481-10.237-9.214-10.237s-9.112 3.174-9.112 10.237v27.13c0 7.064 3.378 10.237 9.112 10.237s9.214-3.174 9.214-10.237z"/><path d="m342.843 314.387-2.969 1.843c-.921.614-1.843.819-2.559.819-2.969 0-5.017-3.174-5.017-6.348 0-2.15.922-4.197 2.969-5.426l13.514-8.19c.819-.512 1.843-.717 2.969-.717 3.276 0 7.064 1.945 7.064 5.016v65.113c0 3.276-3.993 4.914-7.985 4.914-3.993 0-7.985-1.638-7.985-4.914v-52.11z"/><path d="m378.983 347.865v-27.13c0-17.609 10.954-24.161 25.083-24.161 14.128 0 25.185 6.552 25.185 24.161v27.13c0 17.609-11.057 24.161-25.185 24.161-14.129 0-25.083-6.552-25.083-24.161zm34.297-27.131c0-7.064-3.481-10.237-9.214-10.237s-9.112 3.174-9.112 10.237v27.13c0 7.064 3.378 10.237 9.112 10.237s9.214-3.174 9.214-10.237z"/></g><g><path d="m76.176 497.998-64.174-64.174 118.214-118.213 64.173 64.173z" fill="url(#SVGID_1_)"/><path d="m76.176 497.998-64.174-64.174c-13.742 13.742-13.742 36.022 0 49.764l14.41 14.41c13.742 13.742 36.022 13.742 49.764 0z" fill="url(#SVGID_2_)"/><path d="m110.482 338.21v125.482l83.907-83.908-64.173-64.173-21.167 21.166z" fill="url(#SVGID_3_)"/><path d="m171.79 399.518-61.308-61.308c-8.303-8.303-8.303-21.764 0-30.067l16.725-16.725 91.375 91.375-16.725 16.725c-8.303 8.303-21.765 8.303-30.067 0z" fill="url(#SVGID_4_)"/><path d="m127.207 291.418-3.022 3.022v57.473l47.605 47.605c8.303 8.303 21.764 8.303 30.067 0l16.725-16.725z" fill="url(#SVGID_5_)"/><g><circle cx="306.421" cy="203.579" fill="url(#SVGID_6_)" r="203.579"/><circle cx="306.421" cy="203.579" fill="url(#SVGID_7_)" r="171.371"/><circle cx="306.421" cy="203.579" fill="url(#SVGID_8_)" r="146.692"/></g><path d="m63.508 506.308-59.816-59.816c-4.923-4.923-4.923-12.904 0-17.826 4.923-4.923 12.904-4.923 17.826 0l59.816 59.816c4.923 4.923 4.923 12.904 0 17.826-4.922 4.923-12.903 4.923-17.826 0z" fill="url(#SVGID_9_)"/></g><g fill="#e63950"><path d="m231.66 77.32v9.31c0 7.06-3.48 10.24-9.22 10.24-4.74 0-7.87-2.17-8.81-6.92-3.77 3.08-7.42 6.38-10.94 9.9-.51.51-1.02 1.03-1.53 1.55 4.37 6.66 12.16 9.39 21.28 9.39 14.13 0 25.19-6.55 25.19-24.16v-17.49c-5.45 2.37-10.78 5.1-15.97 8.18z"/><path d="m272.92 60.74v44.52c0 3.28 3.99 4.91 7.98 4.91 4 0 7.99-1.63 7.99-4.91v-47.33c-5.36.64-10.7 1.57-15.97 2.81z"/><path d="m343.35 61.59v25.04c0 7.06-3.48 10.24-9.21 10.24s-9.11-3.18-9.11-10.24v-27.13c0-.5.02-.97.05-1.43-5.29-.68-10.61-1.07-15.93-1.16-.06.84-.09 1.7-.09 2.59v27.13c0 17.61 10.95 24.16 25.08 24.16s25.18-6.55 25.18-24.16v-19.92c-5.24-2.02-10.57-3.73-15.97-5.12z"/><path d="m384.61 79.43v25.83c0 3.28 4 4.91 7.99 4.91s7.98-1.63 7.98-4.91v-14.18c-5.11-4.29-10.45-8.18-15.97-11.65z"/><path d="m184.1 122.56c-3.26 4.9-6.18 9.96-8.78 15.13 1.42-.92 3.22-1.35 5.35-1.35 5.73 0 9.22 3.17 9.22 10.24v27.13c0 7.06-3.49 10.23-9.22 10.23s-9.11-3.17-9.11-10.23v-27.13c0-.3.01-.58.02-.86-6.06 14.14-9.8 29.04-11.21 44.12 4.51 5.68 11.83 8.03 20.3 8.03 14.13 0 25.19-6.55 25.19-24.16v-27.13c0-16.16-9.31-23-21.76-24.02z"/><path d="m240.05 122.21c-1.12 0-2.15.21-2.97.72l-13.51 8.19c-2.05 1.23-2.97 3.27-2.97 5.42 0 3.18 2.05 6.35 5.02 6.35.71 0 1.64-.2 2.56-.82l2.97-1.84v52.11c0 3.28 3.99 4.91 7.98 4.91s7.99-1.63 7.99-4.91v-65.11c0-3.07-3.79-5.02-7.07-5.02z"/><path d="m292.37 122.42c-14.13 0-25.08 6.55-25.08 24.16v27.13c0 17.61 10.95 24.16 25.08 24.16s25.18-6.55 25.18-24.16v-27.13c0-17.61-11.05-24.16-25.18-24.16zm9.21 51.29c0 7.06-3.48 10.23-9.21 10.23s-9.11-3.17-9.11-10.23v-27.13c0-7.07 3.38-10.24 9.11-10.24s9.21 3.17 9.21 10.24z"/><path d="m351.75 122.21c-1.13 0-2.15.21-2.97.72l-13.51 8.19c-2.05 1.23-2.97 3.27-2.97 5.42 0 3.18 2.05 6.35 5.01 6.35.72 0 1.64-.2 2.56-.82l2.97-1.84v52.11c0 3.28 4 4.91 7.99 4.91s7.98-1.63 7.98-4.91v-65.11c0-3.07-3.78-5.02-7.06-5.02z"/><path d="m404.07 122.42c-14.13 0-25.09 6.55-25.09 24.16v27.13c0 17.61 10.96 24.16 25.09 24.16 14.12 0 25.18-6.55 25.18-24.16v-27.13c0-17.61-11.06-24.16-25.18-24.16zm9.21 51.29c0 7.06-3.48 10.23-9.21 10.23-5.74 0-9.12-3.17-9.12-10.23v-27.13c0-7.07 3.38-10.24 9.12-10.24 5.73 0 9.21 3.17 9.21 10.24z"/><path d="m170.13 209.29c-1.13 0-2.15.2-2.97.72l-7.04 4.26c1.47 20.32 7.16 40.39 17.07 58.8v-58.76c0-3.07-3.79-5.02-7.06-5.02z"/><path d="m222.44 209.49c-14.13 0-25.08 6.56-25.08 24.17v27.13c0 17.6 10.95 24.16 25.08 24.16s25.19-6.56 25.19-24.16v-27.13c0-17.61-11.06-24.17-25.19-24.17zm9.22 51.3c0 7.06-3.48 10.23-9.22 10.23-5.73 0-9.11-3.17-9.11-10.23v-27.13c0-7.07 3.38-10.24 9.11-10.24 5.74 0 9.22 3.17 9.22 10.24z"/><path d="m281.82 209.29c-1.12 0-2.15.2-2.96.72l-13.52 8.19c-2.05 1.23-2.97 3.27-2.97 5.42 0 3.18 2.05 6.35 5.02 6.35.72 0 1.64-.2 2.56-.82l2.97-1.84v52.11c0 3.27 3.99 4.91 7.98 4.91 4 0 7.99-1.64 7.99-4.91v-65.11c0-3.07-3.79-5.02-7.07-5.02z"/><path d="m334.14 209.49c-14.13 0-25.08 6.56-25.08 24.17v27.13c0 17.6 10.95 24.16 25.08 24.16s25.18-6.56 25.18-24.16v-27.13c0-17.61-11.05-24.17-25.18-24.17zm9.21 51.3c0 7.06-3.48 10.23-9.21 10.23s-9.11-3.17-9.11-10.23v-27.13c0-7.07 3.38-10.24 9.11-10.24s9.21 3.17 9.21 10.24z"/><path d="m393.52 209.29c-1.13 0-2.15.2-2.97.72l-13.51 8.19c-2.05 1.23-2.97 3.27-2.97 5.42 0 3.18 2.05 6.35 5.02 6.35.71 0 1.63-.2 2.55-.82l2.97-1.84v52.11c0 3.27 4 4.91 7.99 4.91s7.98-1.64 7.98-4.91v-65.11c0-3.07-3.78-5.02-7.06-5.02z"/><path d="m445.84 209.49c-14.13 0-25.09 6.56-25.09 24.17v27.13c0 10.49 3.89 17.06 10.03 20.65 2.82-4.48 5.37-9.08 7.65-13.78-1.11-1.64-1.7-3.92-1.7-6.87v-27.13c0-7.07 3.37-10.24 9.11-10.24 2.29 0 4.23.51 5.72 1.57.72-4.93 1.19-9.89 1.41-14.86-2.25-.44-4.64-.64-7.13-.64z"/><path d="m196.12 300.3c2.1 2.39 4.29 4.73 6.57 7.01l.32.32c-1.66-3.18-4.02-5.59-6.89-7.33z"/><path d="m240.05 296.37c-1.12 0-2.15.2-2.97.72l-13.51 8.19c-2.05 1.22-2.97 3.27-2.97 5.42 0 3.18 2.05 6.35 5.02 6.35.71 0 1.64-.21 2.56-.82l2.97-1.84v15.13c5.19 3.11 10.52 5.87 15.97 8.27v-36.41c0-3.07-3.79-5.01-7.07-5.01z"/><path d="m292.37 296.57c-14.13 0-25.08 6.56-25.08 24.16v24.25c5.27 1.45 10.6 2.61 15.98 3.46-.01-.19-.01-.38-.01-.58v-27.13c0-7.06 3.38-10.23 9.11-10.23s9.21 3.17 9.21 10.23v27.13c0 .83-.05 1.61-.14 2.33 5.35.18 10.72.07 16.06-.34.03-.64.05-1.31.05-1.99v-27.13c0-17.6-11.05-24.16-25.18-24.16z"/><path d="m351.75 296.37c-1.13 0-2.15.2-2.97.72l-13.51 8.19c-2.05 1.22-2.97 3.27-2.97 5.42 0 3.18 2.05 6.35 5.01 6.35.72 0 1.64-.21 2.56-.82l2.97-1.84v31.31c5.4-1.38 10.73-3.07 15.97-5.07v-39.25c0-3.07-3.78-5.01-7.06-5.01z"/><path d="m404.07 296.57c-14.13 0-25.09 6.56-25.09 24.16v10.38c5.5-3.13 10.83-6.64 15.97-10.55.06-6.94 3.43-10.06 9.12-10.06.9 0 1.75.08 2.53.23 1.2-1.11 2.38-2.25 3.55-3.42 2.61-2.61 5.1-5.29 7.47-8.04-3.89-1.87-8.53-2.7-13.55-2.7z"/></g></g></svg>